<svg xmlns="http://www.w3.org/2000/svg" width="640" height="280" viewBox="0 0 640 280" fill="none" role="img" aria-labelledby="title desc">
  <title id="title">Walid Idrissi</title>
  <desc id="desc">Developer tools. Cloud systems.</desc>
  <defs>
    <linearGradient id="bg" x2="640" y2="280" gradientUnits="userSpaceOnUse"><stop stop-color="#111318"/><stop offset="1" stop-color="#090C12"/></linearGradient>
    <linearGradient id="silver" x1="36" y1="100" x2="475" y2="170" gradientUnits="userSpaceOnUse"><stop stop-color="#fff"/><stop offset="1" stop-color="#A6B4C5"/></linearGradient>
    <linearGradient id="line" x1="420" y1="0" x2="640" y2="200" gradientUnits="userSpaceOnUse"><stop stop-color="#89DBF0" stop-opacity="0"/><stop offset=".5" stop-color="#89DBF0" stop-opacity=".3"/><stop offset="1" stop-color="#89DBF0" stop-opacity="0"/></linearGradient>
    <clipPath id="clip"><rect x=".5" y=".5" width="639" height="279" rx="16"/></clipPath>
  </defs>
  <g clip-path="url(#clip)">
    <rect width="640" height="280" fill="url(#bg)"/>
    <g transform="rotate(-32 619 47)" stroke="url(#line)">
      <ellipse cx="619" cy="23" rx="103" ry="42"/><ellipse cx="619" cy="29" rx="103" ry="42"/>
      <ellipse cx="619" cy="35" rx="103" ry="42"/><ellipse cx="619" cy="41" rx="103" ry="42"/>
      <ellipse cx="619" cy="47" rx="103" ry="42"/><ellipse cx="619" cy="53" rx="103" ry="42"/>
      <ellipse cx="619" cy="59" rx="103" ry="42"/><ellipse cx="619" cy="65" rx="103" ry="42"/>
    </g>
    <path d="M37 45H51M44 38V52" stroke="#9CAAB9" stroke-width="1.5"/>
    <text x="66" y="50" font-family="SFMono-Regular, Consolas, monospace" font-size="13" letter-spacing="2.5" fill="#A6B1BF">WALID / LABS</text>
    <text x="32" y="136" font-family="-apple-system, BlinkMacSystemFont, 'Segoe UI', Helvetica, Arial, sans-serif" font-size="69" font-weight="600" letter-spacing="-3.1" fill="url(#silver)">Walid Idrissi</text>
    <text x="37" y="181" font-family="-apple-system, BlinkMacSystemFont, 'Segoe UI', Helvetica, Arial, sans-serif" font-size="24" fill="#A6B2C1">Developer tools. Cloud systems.</text>
    <path d="M37 232H61" stroke="#8DDCEE" stroke-width="2"/>
    <text x="78" y="236" font-family="SFMono-Regular, Consolas, monospace" font-size="12" letter-spacing="1.6" fill="#8796A8">GO / TYPESCRIPT / AWS / TERRAFORM</text>
  </g>
  <rect x=".5" y=".5" width="639" height="279" rx="16" stroke="#303945"/>
</svg>
